<svg width="131" height="32" viewBox="0 0 131 32" fill="none" xmlns="http://www.w3.org/2000/svg">
<g clip-path="url(#clip0_758_227)">
<path d="M21.3404 1.93289V3.91086C21.3404 4.19188 21.2918 4.46749 21.1945 4.73769C21.1081 5.0079 20.9838 5.2619 20.8216 5.49968L9.73235 21.3395H20.9842V25.5547H2.7616V23.4471C2.7616 23.1985 2.80483 22.9553 2.8913 22.7175C2.97776 22.4689 3.09665 22.242 3.24797 22.0366L14.3701 6.14797H3.67008V1.93268L21.3404 1.93289Z" fill="#5462EB"/>
<path d="M35.4454 25.5547C34.9698 25.5547 34.6078 25.4898 34.3592 25.3601C34.1214 25.2304 33.9214 24.9602 33.7593 24.5495L33.4026 23.6253C32.9811 23.982 32.5758 24.2954 32.1867 24.5656C31.7976 24.8358 31.3923 25.0682 30.9707 25.2628C30.56 25.4465 30.1169 25.5816 29.6413 25.6681C29.1765 25.7654 28.6577 25.814 28.0849 25.814C27.3175 25.814 26.6204 25.7167 25.9934 25.5222C25.3665 25.3168 24.8315 25.0196 24.3884 24.6305C23.956 24.2414 23.621 23.7604 23.3832 23.1875C23.1454 22.6039 23.0265 21.9338 23.0265 21.1772C23.0265 20.5827 23.1778 19.9721 23.4804 19.3452C23.7831 18.7183 24.3073 18.1508 25.053 17.6428C25.7988 17.124 26.804 16.6917 28.0686 16.3458C29.3332 16 30.9274 15.8054 32.8513 15.7622V15.0488C32.8513 14.0652 32.6459 13.3573 32.2352 12.925C31.8353 12.4818 31.2624 12.2603 30.5166 12.2603C29.9222 12.2603 29.4358 12.3251 29.0575 12.4548C28.6792 12.5845 28.3388 12.7304 28.0362 12.8926C27.7443 13.0547 27.4579 13.2006 27.1769 13.3303C26.8959 13.46 26.5608 13.5249 26.1717 13.5249C25.8258 13.5249 25.5286 13.4438 25.28 13.2817C25.0422 13.1087 24.853 12.898 24.7125 12.6494L23.8046 11.0768C24.8206 10.1797 25.9447 9.51498 27.1768 9.08262C28.4198 8.63948 29.7493 8.41791 31.1651 8.41791C32.1811 8.41791 33.0944 8.58544 33.9051 8.9205C34.7265 9.24475 35.4183 9.7041 35.9803 10.2986C36.5531 10.8822 36.9909 11.5793 37.2935 12.39C37.5962 13.2006 37.7475 14.0869 37.7475 15.0489V25.5543L35.4454 25.5547ZM29.6737 22.4905C30.3222 22.4905 30.8897 22.377 31.3761 22.15C31.8624 21.9231 32.3542 21.5556 32.8514 21.0476V18.713C31.8462 18.7562 31.0194 18.8427 30.3709 18.9724C29.7223 19.1021 29.209 19.2642 28.8307 19.4587C28.4524 19.6533 28.1876 19.8749 28.0363 20.1235C27.8958 20.3721 27.8255 20.6423 27.8255 20.9341C27.8255 21.507 27.9822 21.9123 28.2957 22.15C28.6091 22.377 29.0684 22.4905 29.6737 22.4905Z" fill="#5462EB"/>
<path d="M46.0161 8.7425V19.4105C46.0161 20.2427 46.2052 20.8858 46.5835 21.3398C46.9618 21.7937 47.5184 22.0207 48.2534 22.0207C48.8047 22.0207 49.318 21.9072 49.7936 21.6802C50.28 21.4532 50.7501 21.1344 51.2041 20.7237V8.74296H56.23V25.5551H53.1172C52.4903 25.5551 52.0796 25.2741 51.885 24.712L51.5769 23.7392C51.2527 24.0527 50.9176 24.3391 50.5717 24.5985C50.2259 24.8471 49.853 25.0633 49.453 25.247C49.0639 25.4199 48.6424 25.5551 48.1885 25.6523C47.7345 25.7604 47.2373 25.8145 46.6969 25.8145C45.7782 25.8145 44.9622 25.6577 44.2488 25.3443C43.5463 25.0201 42.9518 24.5715 42.4654 23.9987C41.979 23.4258 41.6115 22.7503 41.3629 21.9721C41.1144 21.1939 40.9901 20.34 40.9901 19.4105V8.74249L46.0161 8.7425Z" fill="#5462EB"/>
<path d="M69.4272 25.5546H64.8553L58.3378 8.74249H62.5206C62.8773 8.74249 63.1745 8.82896 63.4123 9.00189C63.6609 9.16402 63.8285 9.36938 63.9149 9.61797L66.2496 17.1568C66.4333 17.7729 66.6062 18.3728 66.7684 18.9564C66.9413 19.5401 67.0872 20.1237 67.2061 20.7074C67.325 20.1238 67.4709 19.5401 67.6438 18.9564C67.8168 18.3728 68.0005 17.7729 68.1951 17.1568L70.6269 9.61797C70.7134 9.36938 70.8755 9.16402 71.1133 9.00189C71.3511 8.82896 71.6321 8.74249 71.9564 8.74249H75.9447L69.4272 25.5546Z" fill="#5462EB"/>
<path d="M83.243 8.74249V25.5546H78.217V8.74249H83.243ZM83.8266 4.13809C83.8266 4.53801 83.7456 4.9163 83.5834 5.27297C83.4213 5.61884 83.1998 5.92689 82.9187 6.19712C82.6377 6.45652 82.3081 6.66729 81.9298 6.82941C81.5623 6.98073 81.1678 7.05639 80.7463 7.05639C80.3356 7.05639 79.9519 6.98073 79.5952 6.82941C79.2386 6.66729 78.9197 6.45652 78.6387 6.19712C78.3685 5.92691 78.1523 5.61886 77.9902 5.27297C77.8389 4.9163 77.7632 4.538 77.7632 4.13809C77.7632 3.72737 77.8389 3.34369 77.9902 2.98703C78.1523 2.63036 78.3685 2.31691 78.6387 2.04671C78.9197 1.7765 79.2386 1.56573 79.5952 1.41441C79.9519 1.2631 80.3356 1.18744 80.7463 1.18744C81.1678 1.18744 81.5623 1.2631 81.9298 1.41441C82.3081 1.56573 82.6377 1.7765 82.9187 2.04671C83.1997 2.31692 83.4213 2.63036 83.5834 2.98703C83.7456 3.34371 83.8266 3.7274 83.8266 4.13809Z" fill="#5462EB"/>
<path d="M92.4781 8.74249V25.5875C92.4781 26.3765 92.3754 27.1168 92.1701 27.8086C91.9755 28.5112 91.6459 29.1218 91.1811 29.6406C90.7272 30.1703 90.1219 30.5864 89.3654 30.889C88.6196 31.1917 87.69 31.343 86.5768 31.343C86.1661 31.343 85.7824 31.316 85.4257 31.2619C85.0798 31.2187 84.7177 31.1484 84.3394 31.0511L84.5015 28.4085C84.5232 28.1815 84.5988 28.014 84.7285 27.9059C84.8582 27.7978 85.1176 27.7437 85.5067 27.7437C85.8958 27.7437 86.2147 27.7113 86.4632 27.6465C86.7118 27.5816 86.9064 27.4681 87.0469 27.306C87.1982 27.1439 87.3009 26.9223 87.3549 26.6413C87.4198 26.3711 87.4522 26.0198 87.4522 25.5875V8.74247L92.4781 8.74249ZM93.0618 4.13809C93.0618 4.53801 92.9807 4.9163 92.8186 5.27297C92.6565 5.61884 92.4349 5.92689 92.1539 6.19712C91.8728 6.45652 91.5432 6.66729 91.1649 6.82941C90.7974 6.98073 90.4029 7.05639 89.9814 7.05639C89.5707 7.05639 89.187 6.98073 88.8304 6.82941C88.4737 6.66729 88.1548 6.45652 87.8739 6.19712C87.6036 5.92691 87.3875 5.61886 87.2254 5.27297C87.074 4.9163 86.9984 4.538 86.9984 4.13809C86.9984 3.72737 87.074 3.34369 87.2254 2.98703C87.3875 2.63036 87.6036 2.31691 87.8739 2.04671C88.1549 1.7765 88.4737 1.56573 88.8304 1.41441C89.187 1.2631 89.5707 1.18744 89.9814 1.18744C90.403 1.18744 90.7975 1.2631 91.1649 1.41441C91.5432 1.56573 91.8729 1.7765 92.1539 2.04671C92.4349 2.31692 92.6564 2.63036 92.8186 2.98703C92.9807 3.34371 93.0618 3.7274 93.0618 4.13809Z" fill="#5462EB"/>
<path d="M103.668 8.48302C104.781 8.48302 105.797 8.65595 106.716 9.00182C107.646 9.34769 108.44 9.8503 109.099 10.5096C109.769 11.1689 110.288 11.9796 110.656 12.9415C111.034 13.8927 111.223 14.9735 111.223 16.184C111.223 16.5623 111.207 16.8704 111.174 17.1082C111.142 17.346 111.083 17.5351 110.996 17.6756C110.91 17.8161 110.791 17.9134 110.639 17.9674C110.499 18.0215 110.315 18.0485 110.088 18.0485H100.393C100.556 19.4536 100.982 20.475 101.674 21.1127C102.366 21.7395 103.258 22.053 104.349 22.053C104.933 22.053 105.436 21.9827 105.857 21.8422C106.279 21.7017 106.652 21.545 106.976 21.3721C107.311 21.1991 107.613 21.0424 107.884 20.9019C108.165 20.7614 108.457 20.6911 108.759 20.6911C109.159 20.6911 109.462 20.837 109.667 21.1289L111.126 22.9285C110.607 23.5229 110.045 24.0093 109.44 24.3876C108.846 24.7551 108.229 25.0469 107.592 25.263C106.965 25.4684 106.333 25.6089 105.695 25.6846C105.068 25.771 104.468 25.8143 103.895 25.8143C102.717 25.8143 101.609 25.6251 100.572 25.2468C99.545 24.8577 98.6425 24.2849 97.8643 23.5283C97.0969 22.7717 96.4862 21.8314 96.0323 20.7073C95.5891 19.5832 95.3676 18.2754 95.3676 16.7839C95.3676 15.6598 95.5567 14.5952 95.935 13.59C96.3241 12.5848 96.8753 11.7039 97.5887 10.9473C98.3128 10.1907 99.1829 9.59083 100.199 9.14769C101.226 8.70454 102.382 8.48302 103.668 8.48302ZM103.765 11.9525C102.803 11.9525 102.052 12.2281 101.512 12.7794C100.971 13.3198 100.615 14.1034 100.442 15.1302H106.716C106.716 14.7303 106.662 14.3412 106.554 13.9629C106.457 13.5846 106.289 13.2495 106.051 12.9577C105.824 12.655 105.522 12.4118 105.143 12.2281C104.765 12.0443 104.306 11.9525 103.765 11.9525Z" fill="#5462EB"/>
<path d="M119.134 1.28436V14.8871H119.88C120.194 14.8871 120.431 14.8438 120.594 14.7574C120.766 14.6709 120.929 14.5142 121.08 14.2872L124.258 9.55312C124.441 9.2721 124.657 9.06674 124.906 8.93704C125.165 8.80734 125.49 8.74249 125.879 8.74249H130.483L126.138 14.7249C125.933 15.006 125.706 15.2545 125.457 15.4707C125.22 15.6869 124.96 15.8814 124.679 16.0544C125.165 16.4219 125.587 16.9082 125.944 17.5135L130.678 25.5551H126.138C125.76 25.5551 125.43 25.4957 125.149 25.3768C124.879 25.2471 124.657 25.0255 124.485 24.7121L121.307 18.762C121.156 18.4918 120.999 18.3189 120.837 18.2432C120.675 18.1568 120.431 18.1135 120.107 18.1135H119.134V25.5551H114.108V1.28442L119.134 1.28436Z" fill="#5462EB"/>
</g>
<defs>
<clipPath id="clip0_758_227">
<rect width="130.755" height="32" fill="white"/>
</clipPath>
</defs>
</svg>
